<svg id="svg" xmlns="http://www.w3.org/2000/svg" xmlns:xlink="http://www.w3.org/1999/xlink" width="400" height="341.5525114155251" viewBox="0, 0, 400,341.5525114155251"><g id="svgg"><path id="path0" d="M269.513 23.755 C 268.104 24.011,265.491 24.390,263.706 24.597 C 239.728 27.378,199.912 45.482,170.992 66.752 C 162.724 72.833,159.694 75.149,153.886 79.828 C 147.515 84.960,146.341 85.970,137.434 93.981 C 125.302 104.892,106.923 125.340,96.792 139.197 C 50.233 202.882,49.563 267.406,95.303 282.616 C 106.063 286.194,125.277 287.348,136.059 285.063 C 137.339 284.792,139.645 284.400,141.183 284.193 C 153.778 282.494,173.212 275.188,191.577 265.248 C 196.120 262.789,196.324 262.842,201.336 267.753 C 210.737 276.967,217.900 281.328,228.681 284.403 C 235.955 286.478,249.565 286.717,256.874 284.898 C 258.284 284.548,260.128 284.151,260.974 284.017 C 277.295 281.426,301.315 265.893,315.993 248.436 C 325.334 237.326,327.824 230.946,323.861 228.279 C 320.885 226.276,317.755 227.855,309.116 235.717 C 294.104 249.378,282.122 256.047,266.778 259.281 C 251.125 262.579,237.554 259.513,228.236 250.573 C 222.938 245.490,223.018 244.395,229.051 239.498 C 276.240 201.192,329.360 128.943,319.207 116.876 C 315.431 112.389,310.804 115.013,303.834 125.595 C 284.972 154.232,254.924 186.758,225.994 209.853 C 219.503 215.034,218.617 215.396,217.168 213.453 C 214.833 210.322,219.263 190.926,225.858 175.406 C 243.232 134.516,284.920 94.787,329.804 76.345 C 340.549 71.929,342.427 70.684,342.427 67.976 C 342.427 57.167,307.400 66.140,277.393 84.636 C 229.887 113.917,195.025 160.046,186.978 204.270 C 185.480 212.503,185.398 213.521,185.340 224.594 C 185.301 231.884,185.155 235.754,184.902 236.212 C 182.895 239.835,159.766 249.003,146.541 251.418 C 144.757 251.744,141.836 252.283,140.051 252.617 C 137.536 253.086,134.887 253.229,128.266 253.254 L 119.727 253.286 116.503 252.162 C 87.271 241.968,89.085 207.060,121.371 158.512 C 161.035 98.870,225.259 49.735,272.588 42.822 C 283.257 41.264,283.230 41.266,290.862 41.428 C 298.461 41.590,304.651 42.427,308.625 43.829 C 318.528 47.323,324.041 38.951,315.870 32.826 C 311.211 29.334,301.991 25.626,295.816 24.761 C 294.970 24.642,292.695 24.249,290.760 23.887 C 286.416 23.073,273.699 22.995,269.513 23.755 " stroke="none" fill="#e43d35" fill-rule="evenodd"></path><path id="path1" d="M0.000 170.794 L 0.000 341.588 200.000 341.588 L 400.000 341.588 400.000 170.794 L 400.000 0.000 200.000 0.000 L 0.000 0.000 0.000 170.794 M291.375 20.669 C 311.683 23.429,325.033 32.368,322.793 41.707 C 321.487 47.153,315.921 48.965,307.177 46.792 C 259.744 35.004,190.300 74.085,136.605 142.784 C 94.541 196.601,87.232 240.736,118.942 249.431 C 130.516 252.604,156.450 247.428,175.747 238.093 C 182.665 234.747,181.894 236.315,181.906 225.561 C 181.959 180.402,206.816 135.614,252.571 98.239 C 285.689 71.186,333.669 52.517,343.644 62.803 C 349.473 68.812,346.222 73.107,331.170 79.281 C 275.722 102.025,228.344 155.536,220.507 204.270 C 219.487 210.615,219.756 210.675,226.192 205.538 C 252.071 184.879,283.185 150.967,301.105 123.890 C 306.675 115.474,308.812 113.281,312.528 112.170 C 319.353 110.130,325.145 115.872,323.872 123.417 C 321.784 135.797,305.457 162.516,284.152 188.420 C 268.295 207.700,250.876 225.361,232.023 241.274 C 227.399 245.177,227.353 245.593,231.160 249.009 C 248.630 264.681,279.903 258.151,307.088 233.154 C 316.600 224.407,320.918 222.549,325.390 225.279 C 333.086 229.978,327.536 242.475,310.289 259.279 C 274.013 294.622,228.606 299.428,199.889 270.965 C 195.471 266.587,196.233 266.573,187.166 271.194 C 155.921 287.120,127.319 292.782,102.647 287.928 C 47.758 277.128,42.998 208.688,92.350 139.880 C 144.329 67.410,235.126 13.025,291.375 20.669 " stroke="none" fill="#fcfbfb" fill-rule="evenodd"></path><path id="path2" d="M272.758 21.737 C 244.890 24.015,205.133 40.300,175.406 61.614 C 153.524 77.303,144.074 85.150,128.488 100.574 C 83.860 144.739,59.967 189.741,60.014 229.547 C 60.061 269.015,84.084 290.223,125.841 287.661 C 145.986 286.425,162.652 281.566,184.889 270.446 C 196.887 264.446,195.918 264.569,199.753 268.557 C 213.272 282.615,229.329 288.994,247.773 287.636 C 269.937 286.004,290.762 275.999,308.928 258.255 C 325.730 241.843,331.444 229.808,324.030 226.441 C 320.233 224.716,317.144 226.260,308.235 234.337 C 293.020 248.128,281.646 254.496,266.610 257.639 C 251.323 260.834,237.767 257.788,228.994 249.186 C 225.265 245.530,225.348 244.808,229.941 240.927 C 252.037 222.264,266.781 207.261,284.431 185.482 C 305.090 159.991,321.131 133.430,322.307 122.765 C 322.894 117.436,319.833 113.407,315.196 113.407 C 311.168 113.407,308.236 115.980,302.737 124.338 C 285.474 150.576,262.621 175.956,232.277 202.587 C 227.888 206.438,220.992 211.776,220.122 211.994 C 217.352 212.689,217.732 206.716,221.305 193.422 C 234.188 145.478,279.202 98.535,333.266 76.662 C 343.979 72.328,346.661 68.710,342.593 64.078 C 337.004 57.712,308.662 64.939,283.576 79.126 C 222.252 113.808,181.588 174.490,183.578 228.352 C 183.861 236.017,183.921 235.882,179.113 238.345 C 158.361 248.977,129.555 254.653,117.071 250.571 C 94.787 243.284,91.255 218.163,107.850 184.973 C 120.439 159.794,136.798 137.544,161.195 112.418 C 211.399 60.714,268.638 34.477,307.670 45.275 C 322.235 49.304,326.924 37.239,313.826 29.434 C 304.504 23.880,286.903 20.581,272.758 21.737 M293.424 23.044 C 310.167 26.052,320.418 32.040,321.023 39.166 C 321.487 44.631,315.992 47.104,308.099 44.982 C 281.360 37.791,247.014 46.816,210.646 70.591 C 145.822 112.965,87.606 196.218,98.178 231.426 C 104.054 250.993,120.944 256.576,151.324 248.992 C 163.638 245.918,180.723 238.993,183.172 236.082 L 184.034 235.059 184.205 223.166 L 184.377 211.272 185.614 204.724 C 193.620 162.329,221.656 122.475,265.756 90.800 C 293.903 70.583,334.420 56.389,342.089 64.059 C 346.260 68.230,343.880 71.801,334.244 75.831 C 332.365 76.617,328.830 78.112,326.388 79.153 C 286.619 96.107,246.952 133.505,229.360 170.631 C 221.375 187.481,215.384 211.380,218.813 212.696 C 220.827 213.469,245.554 192.248,258.070 179.005 C 259.573 177.415,263.111 173.726,265.933 170.807 C 278.926 157.366,291.291 142.109,301.202 127.288 C 308.925 115.739,310.990 113.749,315.253 113.749 C 321.098 113.749,323.393 119.522,320.734 127.534 C 311.438 155.541,269.792 207.169,229.149 241.069 C 224.805 244.692,224.799 245.614,229.087 249.722 C 237.955 258.219,250.997 261.135,266.439 258.074 C 281.053 255.178,292.971 248.584,307.853 235.159 C 318.644 225.425,322.561 224.014,326.003 228.625 C 329.236 232.955,323.333 243.295,309.993 256.664 C 289.662 277.038,267.731 287.024,243.211 287.069 L 233.476 287.087 229.377 285.960 C 218.121 282.865,210.681 278.482,201.315 269.428 C 195.677 263.978,196.827 264.000,186.777 269.148 C 161.199 282.249,143.289 287.064,120.068 287.080 L 108.113 287.088 102.865 285.958 C 49.446 274.453,45.481 209.123,94.062 140.905 C 109.446 119.304,132.355 95.307,154.056 78.063 C 196.340 44.465,237.248 25.251,273.271 22.070 C 277.927 21.659,288.579 22.174,293.424 23.044 " stroke="none" fill="#f49c9c" fill-rule="evenodd"></path><path id="path3" d="M273.046 21.193 C 186.632 28.940,73.566 131.222,60.659 213.322 C 52.198 267.144,83.738 296.276,140.002 286.607 C 155.884 283.877,169.235 279.174,187.131 270.005 C 196.530 265.189,195.602 265.203,200.309 269.797 C 221.075 290.066,246.761 293.889,276.516 281.138 C 301.522 270.423,331.481 239.981,327.438 229.395 C 324.837 222.584,318.821 223.912,308.190 233.643 C 289.815 250.463,274.676 257.593,256.191 258.130 C 244.940 258.458,237.003 255.790,230.149 249.377 C 225.785 245.294,225.823 245.026,231.436 240.321 C 264.067 212.972,294.836 177.278,312.956 145.753 C 323.123 128.063,325.176 119.360,320.251 114.821 C 315.235 110.197,309.499 112.998,302.739 123.372 C 293.241 137.946,283.967 149.755,269.656 165.500 C 251.563 185.405,222.134 212.163,219.396 211.199 C 216.871 210.309,222.260 188.945,228.712 174.271 C 246.228 134.426,286.803 96.426,331.589 77.922 C 342.513 73.408,344.325 72.070,344.597 68.315 C 345.701 53.046,304.264 63.629,268.669 87.707 C 215.055 123.973,182.684 176.393,183.133 226.218 L 183.209 234.673 182.382 235.577 C 177.698 240.698,149.356 249.742,133.732 251.101 C 105.061 253.594,91.855 235.221,100.591 204.991 C 116.062 151.457,185.812 77.725,243.723 53.688 C 267.371 43.873,289.260 41.173,307.701 45.798 C 314.167 47.420,317.476 47.008,320.002 44.269 C 330.425 32.961,301.322 18.658,273.046 21.193 M293.720 22.706 C 311.178 25.905,321.902 32.598,321.369 39.962 C 320.978 45.369,315.579 47.463,307.670 45.275 C 268.638 34.477,211.399 60.714,161.195 112.418 C 136.798 137.544,120.439 159.794,107.850 184.973 C 91.255 218.163,94.787 243.284,117.071 250.571 C 129.555 254.653,158.361 248.977,179.113 238.345 C 183.921 235.882,183.861 236.017,183.578 228.352 C 181.588 174.490,222.252 113.808,283.576 79.126 C 308.662 64.939,337.004 57.712,342.593 64.078 C 346.661 68.710,343.979 72.328,333.266 76.662 C 279.202 98.535,234.188 145.478,221.305 193.422 C 217.732 206.716,217.352 212.689,220.122 211.994 C 220.992 211.776,227.888 206.438,232.277 202.587 C 262.621 175.956,285.474 150.576,302.737 124.338 C 309.261 114.422,313.518 111.620,318.331 114.076 C 326.303 118.142,321.843 132.239,304.152 158.889 C 284.771 188.085,259.742 215.755,229.941 240.927 C 225.348 244.808,225.265 245.530,228.994 249.186 C 237.767 257.788,251.323 260.834,266.610 257.639 C 281.646 254.496,293.020 248.128,308.235 234.337 C 318.375 225.145,322.949 223.591,326.244 228.219 C 332.636 237.196,304.915 267.083,278.565 279.624 C 249.049 293.671,219.980 289.589,199.753 268.557 C 195.918 264.569,196.887 264.446,184.889 270.446 C 127.292 299.249,76.315 291.982,63.366 253.122 C 46.366 202.104,90.982 122.753,168.061 66.916 C 176.877 60.530,177.717 59.950,183.433 56.305 C 224.858 29.882,265.428 17.523,293.720 22.706 " stroke="none" fill="#f4b2b0" fill-rule="evenodd"></path><path id="path4" d="M273.271 22.070 C 228.188 26.051,170.132 58.207,125.572 103.874 C 82.876 147.632,60.380 190.914,60.343 229.377 C 60.313 260.636,74.800 279.913,102.865 285.958 L 108.113 287.088 120.068 287.080 C 143.289 287.064,161.199 282.249,186.777 269.148 C 196.827 264.000,195.677 263.978,201.315 269.428 C 210.681 278.482,218.121 282.865,229.377 285.960 L 233.476 287.087 243.211 287.069 C 267.731 287.024,289.662 277.038,309.993 256.664 C 323.333 243.295,329.236 232.955,326.003 228.625 C 322.561 224.014,318.644 225.425,307.853 235.159 C 292.971 248.584,281.053 255.178,266.439 258.074 C 250.997 261.135,237.955 258.219,229.087 249.722 C 224.799 245.614,224.805 244.692,229.149 241.069 C 269.792 207.169,311.438 155.541,320.734 127.534 C 323.393 119.522,321.098 113.749,315.253 113.749 C 310.990 113.749,308.925 115.739,301.202 127.288 C 291.291 142.109,278.926 157.366,265.933 170.807 C 263.111 173.726,259.573 177.415,258.070 179.005 C 245.554 192.248,220.827 213.469,218.813 212.696 C 215.384 211.380,221.375 187.481,229.360 170.631 C 246.952 133.505,286.619 96.107,326.388 79.153 C 328.830 78.112,332.365 76.617,334.244 75.831 C 342.524 72.368,344.648 70.254,343.613 66.507 C 340.348 54.682,297.373 68.091,265.756 90.800 C 221.656 122.475,193.620 162.329,185.614 204.724 L 184.377 211.272 184.205 223.166 L 184.034 235.059 183.172 236.082 C 180.723 238.993,163.638 245.918,151.324 248.992 C 120.944 256.576,104.054 250.993,98.178 231.426 C 87.606 196.218,145.822 112.965,210.646 70.591 C 247.014 46.816,281.360 37.791,308.099 44.982 C 321.455 48.573,326.244 38.194,314.758 30.552 C 305.750 24.558,287.454 20.817,273.271 22.070 M290.760 23.887 C 292.695 24.249,294.970 24.642,295.816 24.761 C 301.991 25.626,311.211 29.334,315.870 32.826 C 324.041 38.951,318.528 47.323,308.625 43.829 C 304.651 42.427,298.461 41.590,290.862 41.428 C 283.230 41.266,283.257 41.264,272.588 42.822 C 225.259 49.735,161.035 98.870,121.371 158.512 C 89.085 207.060,87.271 241.968,116.503 252.162 L 119.727 253.286 128.266 253.254 C 134.887 253.229,137.536 253.086,140.051 252.617 C 141.836 252.283,144.757 251.744,146.541 251.418 C 159.766 249.003,182.895 239.835,184.902 236.212 C 185.155 235.754,185.301 231.884,185.340 224.594 C 185.398 213.521,185.480 212.503,186.978 204.270 C 190.456 185.155,198.232 166.760,210.729 148.079 C 239.488 105.089,291.208 68.854,331.512 63.458 C 338.290 62.551,342.427 64.263,342.427 67.976 C 342.427 70.684,340.549 71.929,329.804 76.345 C 284.920 94.787,243.232 134.516,225.858 175.406 C 219.263 190.926,214.833 210.322,217.168 213.453 C 218.617 215.396,219.503 215.034,225.994 209.853 C 254.924 186.758,284.972 154.232,303.834 125.595 C 309.850 116.461,313.221 113.816,316.947 115.307 C 322.160 117.393,321.845 123.891,315.962 135.629 C 299.729 168.021,262.938 211.989,229.051 239.498 C 223.018 244.395,222.938 245.490,228.236 250.573 C 237.554 259.513,251.125 262.579,266.778 259.281 C 282.122 256.047,294.104 249.378,309.116 235.717 C 317.755 227.855,320.885 226.276,323.861 228.279 C 327.824 230.946,325.334 237.326,315.993 248.436 C 301.315 265.893,277.295 281.426,260.974 284.017 C 260.128 284.151,258.284 284.548,256.874 284.898 C 249.565 286.717,235.955 286.478,228.681 284.403 C 217.900 281.328,210.737 276.967,201.336 267.753 C 196.324 262.842,196.120 262.789,191.577 265.248 C 173.212 275.188,153.778 282.494,141.183 284.193 C 139.645 284.400,137.339 284.792,136.059 285.063 C 132.002 285.923,120.125 286.396,113.295 285.970 C 53.956 282.273,43.792 218.073,91.303 147.054 C 102.337 130.560,122.303 107.590,137.434 93.981 C 146.341 85.970,147.515 84.960,153.886 79.828 C 159.694 75.149,162.724 72.833,170.992 66.752 C 199.912 45.482,239.728 27.378,263.706 24.597 C 265.491 24.390,268.104 24.011,269.513 23.755 C 273.699 22.995,286.416 23.073,290.760 23.887 " stroke="none" fill="#ec948c" fill-rule="evenodd"></path><path id="path5" d="M271.221 20.313 C 186.226 28.918,74.701 129.088,60.137 209.906 C 57.683 223.522,57.576 234.446,59.785 245.602 C 69.087 292.568,123.703 303.541,187.166 271.194 C 196.233 266.573,195.471 266.587,199.889 270.965 C 228.606 299.428,274.013 294.622,310.289 259.279 C 327.536 242.475,333.086 229.978,325.390 225.279 C 320.918 222.549,316.600 224.407,307.088 233.154 C 279.903 258.151,248.630 264.681,231.160 249.009 C 227.353 245.593,227.399 245.177,232.023 241.274 C 245.014 230.309,265.334 210.572,274.128 200.376 C 301.688 168.424,321.432 137.878,323.872 123.417 C 325.145 115.872,319.353 110.130,312.528 112.170 C 308.812 113.281,306.675 115.474,301.105 123.890 C 283.185 150.967,252.071 184.879,226.192 205.538 C 219.756 210.675,219.487 210.615,220.507 204.270 C 228.344 155.536,275.722 102.025,331.170 79.281 C 344.540 73.797,347.248 71.269,345.608 65.798 C 340.937 50.207,289.352 68.194,252.571 98.239 C 206.816 135.614,181.959 180.402,181.906 225.561 C 181.894 236.315,182.665 234.747,175.747 238.093 C 156.450 247.428,130.516 252.604,118.942 249.431 C 85.046 240.137,95.499 192.237,144.305 133.219 C 195.763 70.994,262.360 35.655,307.177 46.792 C 317.527 49.364,324.040 45.875,323.010 38.311 C 321.444 26.799,295.661 17.839,271.221 20.313 M291.065 21.717 C 313.784 24.991,327.743 35.870,320.002 44.269 C 317.476 47.008,314.167 47.420,307.701 45.798 C 286.553 40.495,261.332 44.741,233.817 58.238 C 178.201 85.520,114.998 155.140,100.591 204.991 C 91.855 235.221,105.061 253.594,133.732 251.101 C 149.356 249.742,177.698 240.698,182.382 235.577 L 183.209 234.673 183.133 226.218 C 182.886 198.845,191.050 173.664,208.800 147.054 C 236.310 105.810,285.373 70.117,325.242 62.343 C 338.651 59.728,345.074 61.710,344.597 68.315 C 344.325 72.070,342.513 73.408,331.589 77.922 C 286.803 96.426,246.228 134.426,228.712 174.271 C 222.260 188.945,216.871 210.309,219.396 211.199 C 222.134 212.163,251.563 185.405,269.656 165.500 C 283.967 149.755,293.241 137.946,302.739 123.372 C 308.350 114.761,312.554 111.778,317.285 113.052 C 328.893 116.178,321.422 136.728,296.078 171.388 C 277.909 196.236,255.413 220.226,231.436 240.321 C 225.823 245.026,225.785 245.294,230.149 249.377 C 237.003 255.790,244.940 258.458,256.191 258.130 C 274.676 257.593,289.815 250.463,308.190 233.643 C 318.821 223.912,324.837 222.584,327.438 229.395 C 331.481 239.981,301.522 270.423,276.516 281.138 C 246.761 293.889,221.075 290.066,200.309 269.797 C 195.602 265.203,196.530 265.189,187.131 270.005 C 169.235 279.174,155.884 283.877,140.002 286.607 C 96.827 294.026,67.417 278.673,60.815 245.266 C 50.869 194.942,90.852 125.476,160.717 71.697 C 206.970 36.094,257.193 16.837,291.065 21.717 " stroke="none" fill="#f4ccc4" fill-rule="evenodd"></path></g></svg>